# xmcd
#
# Track frame offsets: 
#        150
#        13355
#        23895
#        35928
#        49372
#        61141
#        73876
#        87326
#        99545
#        111092
#        124622
#        137800
#        148244
#        160608
#        172085
#        184563
#        194972
#        206974
#        219587
#        233035
#        244635
#        257291
#        269446
#        281573
#        291914
#
# Disc length: 4073 seconds
#
# Revision: 0
# Processed by: cddbd v1.5.2PL0 Copyright (c) Steve Scherf et al.
# Submitted via: ExactAudioCopy v0.95b4
#
DISCID=8f0fe719
DTITLE=Various Artist - 75 Rhythm and Blues, Disc 2
DYEAR=1900
DGENRE=R&B
TTITLE0=B.B. King, Please Love Me
TTITLE1=Elmore Nixon, If You'll Be My Love
TTITLE2=Big Joe Turner, Midnight Special Train
TTITLE3=Ray Charles, The Midnight Hour
TTITLE4=Big Mama Thornton, Rock A Bye Baby
TTITLE5=Champion Jack Dupree, Meat On De Bone
TTITLE6=Arthur Big Boy Crudup, Gonna Find My Baby
TTITLE7=Ruth Brown, Hello Little Boy
TTITLE8=Eddie Boyd, Hard Time Gettin' Started
TTITLE9=Faye AdamsFaye Adams, It Hurts Me To My Heart
TTITLE10=Howlin' Wolf, Evills Goin' On
TTITLE11=Ray Charles, Ain`t That Fine
TTITLE12=Little Walter, My Babe
TTITLE13=Margie Day, Sadle Green
TTITLE14=Mr. Sad Head, Sad Head Blues
TTITLE15=B.B. King, Fine Looking Woman
TTITLE16=Roy Milton, Little Boy Blues
TTITLE17=Ray Charles, Rockin' Chair Blues
TTITLE18=Ruth Brown, Mama, He Treats Your Daughter Mean
TTITLE19=Mildred Jones, Mr. Thrill
TTITLE20=Smiley Lewis, I Hear You Knocking
TTITLE21=T-Bone Walker, Railroad Station Blues
TTITLE22=Willie Nix, Truckin' Little Woman
TTITLE23=Elmore James, Can't Stop Lovin' My Baby
TTITLE24=B.B. King, You Upset Me Baby
EXTD=
EXTT0=
EXTT1=
EXTT2=
EXTT3=
EXTT4=
EXTT5=
EXTT6=
EXTT7=
EXTT8=
EXTT9=
EXTT10=
EXTT11=
EXTT12=
EXTT13=
EXTT14=
EXTT15=
EXTT16=
EXTT17=
EXTT18=
EXTT19=
EXTT20=
EXTT21=
EXTT22=
EXTT23=
EXTT24=
PLAYORDER=
